<svg version="1.1" id="Layer_1" xmlns="http://www.w3.org/2000/svg" xmlns:xlink="http://www.w3.org/1999/xlink" x="0px" y="0px"
	 width="100%" viewBox="0 0 126 123" enable-background="new 0 0 126 123" xml:space="preserve">
<path fill="none" opacity="1.000000" stroke="none"
	d="
M84.000000,124.000000
	C56.000000,124.000000 28.500000,124.000000 1.000000,124.000000 
	C1.000000,83.000000 1.000000,42.000000 1.000000,1.000000 
	C43.000000,1.000000 85.000000,1.000000 127.000000,1.000000 
	C127.000000,42.000000 127.000000,83.000000 127.000000,124.000000 
	C112.833336,124.000000 98.666664,124.000000 84.000000,124.000000 
M66.063499,78.072441 
	C65.701782,81.846809 65.118149,85.616310 65.035362,89.396790 
	C64.935234,93.968834 63.155403,96.624512 58.351444,96.936096 
	C57.187675,97.011574 56.063370,97.695572 54.920914,98.099754 
	C55.008297,98.589172 55.095680,99.078598 55.183060,99.568016 
	C56.557293,99.687469 57.931396,99.908768 59.305779,99.910492 
	C71.797272,99.926170 84.289146,99.842789 96.780243,99.910004 
	C108.228394,99.971611 110.103004,98.437065 111.675972,86.924530 
	C111.797035,86.038452 111.216484,85.056526 110.945213,84.057114 
	C110.044052,84.391747 109.675575,84.433754 109.447479,84.634941 
	C109.081413,84.957809 108.682838,85.337837 108.514290,85.776764 
	C105.135193,94.576744 98.232155,96.794861 89.639595,96.030983 
	C87.323280,95.825066 84.970596,96.048203 82.649033,95.877823 
	C76.352280,95.415695 74.353752,93.495728 74.109756,87.208336 
	C73.864418,80.886436 73.941887,74.552017 73.764061,67.576103 
	C73.131851,66.999603 72.499641,66.423096 72.093269,65.130371 
	C72.655708,62.569061 73.589485,60.024395 73.705177,57.443062 
	C73.965790,51.628323 73.908714,45.793972 73.812157,39.970402 
	C73.743034,35.801693 75.367744,33.369183 79.720917,32.938694 
	C80.624474,32.849339 81.449135,31.962204 82.310158,31.442745 
	C81.264366,30.988825 80.225655,30.161758 79.171638,30.141769 
	C72.520370,30.015640 65.865211,30.027037 59.212658,30.105114 
	C58.160378,30.117464 57.114765,30.697626 56.071602,31.013586 
	C56.362053,31.926085 56.363598,32.150909 56.467659,32.218952 
	C56.871761,32.483192 57.310078,32.902946 57.732765,32.899593 
	C63.513824,32.853718 65.070824,36.243244 64.939529,41.335407 
	C64.798012,46.824402 64.811607,52.323307 64.972130,57.811611 
	C65.048828,60.433746 63.990368,61.405270 61.507473,61.394157 
	C53.518303,61.358406 45.528419,61.333698 37.539764,61.407536 
	C34.709930,61.433689 33.839973,60.197910 33.926670,57.463100 
	C34.111176,51.642715 34.038338,45.813728 34.042896,39.988243 
	C34.046066,35.936127 35.598911,33.319473 40.018917,32.941898 
	C40.920609,32.864868 41.754257,31.991236 43.617634,30.900333 
	C33.492744,30.900333 24.829626,30.900333 16.166510,30.900333 
	C16.535492,32.339653 17.069599,32.892494 17.574865,32.867283 
	C23.328375,32.580238 25.145195,35.817802 25.132771,40.954140 
	C25.093325,57.264759 25.074795,73.575722 25.147144,89.886108 
	C25.164642,93.830841 23.503859,96.087143 19.637556,96.936234 
	C18.627293,97.158104 17.770910,98.080681 15.942908,99.265289 
	C26.456707,100.835663 42.291096,99.823982 43.636505,97.625946 
	C42.982216,97.420082 42.390026,97.144127 41.770588,97.052620 
	C35.015663,96.054787 34.175068,95.236603 34.043430,88.559166 
	C33.918785,82.236397 33.873138,75.905762 34.082039,69.588142 
	C34.122940,68.351158 35.461231,66.122673 36.246548,66.102310 
	C45.658829,65.858192 55.079674,65.944572 64.182983,65.944572 
	C64.910576,69.163605 65.464050,71.612328 66.000908,74.878731 
	C66.112968,75.689728 66.225021,76.500725 66.063499,78.072441 
M96.398399,43.616482 
	C99.813522,46.734524 103.228645,49.852566 107.215660,53.492748 
	C106.955864,48.948227 106.693947,44.366791 106.475037,40.537460 
	C97.641983,40.537460 89.620186,40.537460 81.598389,40.537460 
	C81.597397,41.248131 81.596397,41.958801 81.595406,42.669472 
	C86.256737,42.927101 90.918076,43.184734 96.398399,43.616482 
M95.060585,60.565868 
	C95.038551,64.445023 92.638878,65.698936 89.238846,65.783752 
	C86.420418,65.854057 83.589607,65.729393 80.786957,65.963089 
	C79.837479,66.042274 78.957359,66.953033 78.045540,67.483765 
	C78.936913,68.271523 79.719894,69.292542 80.754028,69.773056 
	C81.578331,70.156075 82.709503,69.864143 83.703529,69.898651 
	C94.601555,70.276932 92.183502,68.676933 96.476601,78.257027 
	C96.997612,70.560020 97.447655,63.911339 97.897697,57.262657 
	C97.481354,57.175991 97.065010,57.089325 96.648659,57.002655 
	C96.161728,57.924168 95.674789,58.845676 95.060585,60.565868 
z"/>
<path fill="#131313" opacity="1.000000" stroke="none" 
	d="
M66.017532,74.061058 
	C65.464050,71.612328 64.910576,69.163605 64.182983,65.944572 
	C55.079674,65.944572 45.658829,65.858192 36.246548,66.102310 
	C35.461231,66.122673 34.122940,68.351158 34.082039,69.588142 
	C33.873138,75.905762 33.918785,82.236397 34.043430,88.559166 
	C34.175068,95.236603 35.015663,96.054787 41.770588,97.052620 
	C42.390026,97.144127 42.982216,97.420082 43.636505,97.625946 
	C42.291096,99.823982 26.456707,100.835663 15.942908,99.265289 
	C17.770910,98.080681 18.627293,97.158104 19.637556,96.936234 
	C23.503859,96.087143 25.164642,93.830841 25.147144,89.886108 
	C25.074795,73.575722 25.093325,57.264759 25.132771,40.954140 
	C25.145195,35.817802 23.328375,32.580238 17.574865,32.867283 
	C17.069599,32.892494 16.535492,32.339653 16.166510,30.900333 
	C24.829626,30.900333 33.492744,30.900333 43.617634,30.900333 
	C41.754257,31.991236 40.920609,32.864868 40.018917,32.941898 
	C35.598911,33.319473 34.046066,35.936127 34.042896,39.988243 
	C34.038338,45.813728 34.111176,51.642715 33.926670,57.463100 
	C33.839973,60.197910 34.709930,61.433689 37.539764,61.407536 
	C45.528419,61.333698 53.518303,61.358406 61.507473,61.394157 
	C63.990368,61.405270 65.048828,60.433746 64.972130,57.811611 
	C64.811607,52.323307 64.798012,46.824402 64.939529,41.335407 
	C65.070824,36.243244 63.513824,32.853718 57.732765,32.899593 
	C57.310078,32.902946 56.871761,32.483192 56.467659,32.218952 
	C56.363598,32.150909 56.362053,31.926085 56.071602,31.013586 
	C57.114765,30.697626 58.160378,30.117464 59.212658,30.105114 
	C65.865211,30.027037 72.520370,30.015640 79.171638,30.141769 
	C80.225655,30.161758 81.264366,30.988825 82.310158,31.442743 
	C81.449135,31.962204 80.624474,32.849339 79.720917,32.938694 
	C75.367744,33.369183 73.743034,35.801693 73.812157,39.970402 
	C73.908714,45.793972 73.965790,51.628323 73.705177,57.443062 
	C73.589485,60.024395 72.655708,62.569061 71.668648,65.633934 
	C69.501862,68.778679 67.759697,71.419868 66.017532,74.061058 
z"/>
<path fill="#E28337" opacity="1.000000" stroke="none" 
	d="
M73.877899,68.223083 
	C73.941887,74.552017 73.864418,80.886436 74.109756,87.208336 
	C74.353752,93.495728 76.352280,95.415695 82.649033,95.877823 
	C84.970596,96.048203 87.323280,95.825066 89.639595,96.030983 
	C98.232155,96.794861 105.135193,94.576744 108.514290,85.776764 
	C108.682838,85.337837 109.081413,84.957809 109.447479,84.634941 
	C109.675575,84.433754 110.044052,84.391747 110.945213,84.057114 
	C111.216484,85.056526 111.797035,86.038452 111.675972,86.924530 
	C110.103004,98.437065 108.228394,99.971611 96.780243,99.910004 
	C84.289146,99.842789 71.797272,99.926170 59.305779,99.910492 
	C57.931396,99.908768 56.557293,99.687469 55.183060,99.568016 
	C55.095680,99.078598 55.008297,98.589172 54.920914,98.099754 
	C56.063370,97.695572 57.187675,97.011574 58.351444,96.936096 
	C63.155403,96.624512 64.935234,93.968834 65.035362,89.396790 
	C65.118149,85.616310 65.701782,81.846809 66.466202,77.487968 
	C69.205231,74.010025 71.541565,71.116554 73.877899,68.223083 
z"/>
<path fill="#DE8034" opacity="1.000000" stroke="none" 
	d="
M95.988907,43.529423 
	C90.918076,43.184734 86.256737,42.927101 81.595406,42.669472 
	C81.596397,41.958801 81.597397,41.248131 81.598389,40.537460 
	C89.620186,40.537460 97.641983,40.537460 106.475037,40.537460 
	C106.693947,44.366791 106.955864,48.948227 107.215660,53.492748 
	C103.228645,49.852566 99.813522,46.734524 95.988907,43.529423 
z"/>
<path fill="#DF8339" opacity="1.000000" stroke="none" 
	d="
M95.124222,60.166527 
	C95.674789,58.845676 96.161728,57.924168 96.648659,57.002655 
	C97.065010,57.089325 97.481354,57.175991 97.897697,57.262657 
	C97.447655,63.911339 96.997612,70.560020 96.476601,78.257027 
	C92.183502,68.676933 94.601555,70.276932 83.703529,69.898651 
	C82.709503,69.864143 81.578331,70.156075 80.754028,69.773056 
	C79.719894,69.292542 78.936913,68.271523 78.045540,67.483765 
	C78.957359,66.953033 79.837479,66.042274 80.786957,65.963089 
	C83.589607,65.729393 86.420418,65.854057 89.238846,65.783752 
	C92.638878,65.698936 95.038551,64.445023 95.124222,60.166527 
z"/>
<path fill="#E3D7C4" opacity="1.000000" stroke="none" 
	d="
M73.820984,67.899597 
	C71.541565,71.116554 69.205231,74.010025 66.602982,77.107605 
	C66.225021,76.500725 66.112968,75.689728 66.009216,74.469894 
	C67.759697,71.419868 69.501862,68.778679 71.555725,65.992043 
	C72.499641,66.423096 73.131851,66.999603 73.820984,67.899597 
z"/>
</svg>